<svg width="20" height="20" viewBox="0 0 20 20" fill="none" xmlns="http://www.w3.org/2000/svg">
<path d="M7.49984 10.8334C9.34079 10.8334 10.8332 9.34103 10.8332 7.50008C10.8332 5.65913 9.34079 4.16675 7.49984 4.16675C5.65889 4.16675 4.1665 5.65913 4.1665 7.50008C4.1665 9.34103 5.65889 10.8334 7.49984 10.8334Z" fill="black"/>
<path d="M7.50016 12.5001C5.27516 12.5001 0.833496 13.6167 0.833496 15.8334V17.5001H14.1668V15.8334C14.1668 13.6167 9.72516 12.5001 7.50016 12.5001ZM13.9668 4.46675L12.5668 5.87508C13.2668 6.85841 13.2668 8.13341 12.5668 9.11675L13.9668 10.5251C15.6502 8.84175 15.6502 6.30008 13.9668 4.46675ZM16.7252 1.66675L15.3668 3.02508C17.6752 5.54175 17.6752 9.32508 15.3668 11.9751L16.7252 13.3334C19.9752 10.0917 19.9835 5.04175 16.7252 1.66675Z" fill="black"/>
</svg>
