<svg width="12" height="10" viewBox="0 0 12 10" fill="none" xmlns="http://www.w3.org/2000/svg">
<path fill-rule="evenodd" clip-rule="evenodd" d="M2.98852 0C3.22431 0 3.41546 0.1722 3.41546 0.384615V0.769231H7.68478V0.384615C7.68478 0.1722 7.87596 0 8.11171 0C8.34746 0 8.53864 0.1722 8.53864 0.384615V0.769231H9.81944C10.5268 0.769231 11.1002 1.28582 11.1002 1.92308V8.84615C11.1002 9.48338 10.5268 10 9.81944 10H1.2808C0.573429 10 0 9.48338 0 8.84615V1.92308C0 1.28582 0.573429 0.769231 1.2808 0.769231H2.56159V0.384615C2.56159 0.1722 2.75274 0 2.98852 0ZM7.68478 1.53846V1.92308C7.68478 2.13549 7.87596 2.30769 8.11171 2.30769C8.34746 2.30769 8.53864 2.13549 8.53864 1.92308V1.53846H9.81944C10.0552 1.53846 10.2464 1.71066 10.2464 1.92308V3.07692H0.853864V1.92308C0.853864 1.71066 1.04501 1.53846 1.2808 1.53846H2.56159V1.92308C2.56159 2.13549 2.75274 2.30769 2.98852 2.30769C3.22431 2.30769 3.41546 2.13549 3.41546 1.92308V1.53846H7.68478ZM0.853864 3.84615V8.84615C0.853864 9.05854 1.04501 9.23077 1.2808 9.23077H9.81944C10.0552 9.23077 10.2464 9.05854 10.2464 8.84615V3.84615H0.853864ZM5.12318 5C5.12318 4.78758 5.31433 4.61538 5.55012 4.61538C5.7859 4.61538 5.97705 4.78758 5.97705 5C5.97705 5.21242 5.7859 5.38462 5.55012 5.38462C5.31433 5.38462 5.12318 5.21242 5.12318 5ZM7.25784 4.61538C7.02206 4.61538 6.83091 4.78758 6.83091 5C6.83091 5.21242 7.02206 5.38462 7.25784 5.38462C7.49363 5.38462 7.68478 5.21242 7.68478 5C7.68478 4.78758 7.49363 4.61538 7.25784 4.61538ZM8.53864 5C8.53864 4.78758 8.72982 4.61538 8.96557 4.61538C9.20132 4.61538 9.3925 4.78758 9.3925 5C9.3925 5.21242 9.20132 5.38462 8.96557 5.38462C8.72982 5.38462 8.53864 5.21242 8.53864 5ZM8.96557 6.15385C8.72982 6.15385 8.53864 6.32605 8.53864 6.53846C8.53864 6.75088 8.72982 6.92308 8.96557 6.92308C9.20132 6.92308 9.3925 6.75088 9.3925 6.53846C9.3925 6.32605 9.20132 6.15385 8.96557 6.15385ZM6.83091 6.53846C6.83091 6.32605 7.02206 6.15385 7.25784 6.15385C7.49363 6.15385 7.68478 6.32605 7.68478 6.53846C7.68478 6.75088 7.49363 6.92308 7.25784 6.92308C7.02206 6.92308 6.83091 6.75088 6.83091 6.53846ZM5.55012 6.15385C5.31433 6.15385 5.12318 6.32605 5.12318 6.53846C5.12318 6.75088 5.31433 6.92308 5.55012 6.92308C5.7859 6.92308 5.97705 6.75088 5.97705 6.53846C5.97705 6.32605 5.7859 6.15385 5.55012 6.15385ZM3.41546 6.53846C3.41546 6.32605 3.6066 6.15385 3.84239 6.15385C4.07817 6.15385 4.26932 6.32605 4.26932 6.53846C4.26932 6.75088 4.07817 6.92308 3.84239 6.92308C3.6066 6.92308 3.41546 6.75088 3.41546 6.53846ZM2.13466 6.15385C1.89887 6.15385 1.70773 6.32605 1.70773 6.53846C1.70773 6.75088 1.89887 6.92308 2.13466 6.92308C2.37045 6.92308 2.56159 6.75088 2.56159 6.53846C2.56159 6.32605 2.37045 6.15385 2.13466 6.15385ZM1.70773 8.07692C1.70773 7.86454 1.89887 7.69231 2.13466 7.69231C2.37045 7.69231 2.56159 7.86454 2.56159 8.07692C2.56159 8.28931 2.37045 8.46154 2.13466 8.46154C1.89887 8.46154 1.70773 8.28931 1.70773 8.07692ZM3.84239 7.69231C3.6066 7.69231 3.41546 7.86454 3.41546 8.07692C3.41546 8.28931 3.6066 8.46154 3.84239 8.46154C4.07817 8.46154 4.26932 8.28931 4.26932 8.07692C4.26932 7.86454 4.07817 7.69231 3.84239 7.69231ZM5.12318 8.07692C5.12318 7.86454 5.31433 7.69231 5.55012 7.69231C5.7859 7.69231 5.97705 7.86454 5.97705 8.07692C5.97705 8.28931 5.7859 8.46154 5.55012 8.46154C5.31433 8.46154 5.12318 8.28931 5.12318 8.07692ZM7.25784 7.69231C7.02206 7.69231 6.83091 7.86454 6.83091 8.07692C6.83091 8.28931 7.02206 8.46154 7.25784 8.46154C7.49363 8.46154 7.68478 8.28931 7.68478 8.07692C7.68478 7.86454 7.49363 7.69231 7.25784 7.69231Z" fill="black"/>
</svg>
