<svg viewBox="0 0 9 9" fill="none" xmlns="http://www.w3.org/2000/svg">
<path fill-rule="evenodd" clip-rule="evenodd" d="M4.5 1.3125C2.74238 1.3125 1.3125 2.74238 1.3125 4.5C1.3125 6.25763 2.74238 7.6875 4.5 7.6875C6.25763 7.6875 7.6875 6.25763 7.6875 4.5C7.6875 2.74238 6.25763 1.3125 4.5 1.3125ZM4.5 8.25C2.43225 8.25 0.75 6.56775 0.75 4.5C0.75 2.43225 2.43225 0.75 4.5 0.75C6.56775 0.75 8.25 2.43225 8.25 4.5C8.25 6.56775 6.56775 8.25 4.5 8.25Z" fill="currentColor"/>
<path fill-rule="evenodd" clip-rule="evenodd" d="M5.7868 5.88452C5.73767 5.88452 5.68817 5.87177 5.6428 5.84514L4.22905 5.00177C4.1443 4.95077 4.0918 4.85889 4.0918 4.75989V2.94189C4.0918 2.78664 4.2178 2.66064 4.37305 2.66064C4.52867 2.66064 4.6543 2.78664 4.6543 2.94189V4.60014L5.93117 5.36139C6.0643 5.44127 6.10817 5.61377 6.02867 5.74727C5.9758 5.83539 5.88242 5.88452 5.7868 5.88452Z" fill="currentColor"/>
</svg>
