<svg viewBox="0 0 17 19" fill="none" xmlns="http://www.w3.org/2000/svg">
<path d="M11.8333 4.4V3.72C11.8333 2.76791 11.8333 2.29187 11.6517 1.92822C11.4919 1.60834 11.2369 1.34827 10.9233 1.18529C10.5668 1 10.1001 1 9.16667 1H7.83333C6.89991 1 6.4332 1 6.07668 1.18529C5.76308 1.34827 5.50811 1.60834 5.34832 1.92822C5.16667 2.29187 5.16667 2.76791 5.16667 3.72V4.4M6.83333 9.075V13.325M10.1667 9.075V13.325M1 4.4H16M14.3333 4.4V13.92C14.3333 15.3481 14.3333 16.0622 14.0608 16.6077C13.8212 17.0875 13.4387 17.4776 12.9683 17.7221C12.4335 18 11.7335 18 10.3333 18H6.66667C5.26654 18 4.56647 18 4.03169 17.7221C3.56129 17.4776 3.17883 17.0875 2.93915 16.6077C2.66667 16.0622 2.66667 15.3481 2.66667 13.92V4.4" stroke="black" stroke-width="2" stroke-linecap="round" stroke-linejoin="round"/>
</svg>
