<svg width="20" height="24" viewBox="0 0 20 24" fill="none" xmlns="http://www.w3.org/2000/svg">
<path d="M2.10526 20.4236V9.89413H14.7368V10.9471C15.4737 10.9471 16.1789 11.0524 16.8421 11.2524V9.89413C16.8421 8.73589 15.8947 7.78824 14.7368 7.78824H13.6842V5.68234C13.6842 2.77621 11.3263 0.417603 8.42105 0.417603C5.51579 0.417603 3.15789 2.77621 3.15789 5.68234V7.78824H2.10526C0.947368 7.78824 0 8.73589 0 9.89413V20.4236C0 21.5819 0.947368 22.5295 2.10526 22.5295H8.69474C8.25263 21.8977 7.90526 21.1817 7.67368 20.4236H2.10526ZM5.26316 5.68234C5.26316 3.93445 6.67368 2.5235 8.42105 2.5235C10.1684 2.5235 11.5789 3.93445 11.5789 5.68234V7.78824H5.26316V5.68234Z" fill="black"/>
<path d="M14.7368 13.053C11.8315 13.053 9.47363 15.4116 9.47363 18.3177C9.47363 21.2239 11.8315 23.5825 14.7368 23.5825C17.6421 23.5825 19.9999 21.2239 19.9999 18.3177C19.9999 15.4116 17.6421 13.053 14.7368 13.053ZM14.7368 15.1589C15.6105 15.1589 16.3157 15.8643 16.3157 16.7383C16.3157 17.6122 15.6105 18.3177 14.7368 18.3177C13.8631 18.3177 13.1578 17.6122 13.1578 16.7383C13.1578 15.8643 13.8631 15.1589 14.7368 15.1589ZM14.7368 21.4766C13.6526 21.4766 12.6947 20.929 12.1263 20.0867C12.8947 19.6444 13.7789 19.3707 14.7368 19.3707C15.6947 19.3707 16.5789 19.6444 17.3473 20.0867C16.7789 20.929 15.821 21.4766 14.7368 21.4766Z" fill="black"/>
</svg>
