<svg width="20" height="20" viewBox="0 0 20 20" fill="none" xmlns="http://www.w3.org/2000/svg">
<path d="M4.5 3C4.5 2.72386 4.72386 2.5 5 2.5H11.3201C11.4468 2.5 11.5687 2.54806 11.6613 2.63447L12 2.27155L11.6613 2.63447L13.516 4.36553L15.3412 6.06902C15.4425 6.16359 15.5 6.29596 15.5 6.43455V17C15.5 17.2761 15.2761 17.5 15 17.5H5C4.72386 17.5 4.5 17.2761 4.5 17V3Z" stroke="#666666"/>
<line x1="11.5" y1="6.5" x2="11.5" y2="2.5" stroke="#666666" stroke-linecap="round"/>
<line x1="11.5" y1="6.5" x2="15.5" y2="6.5" stroke="#666666" stroke-linecap="round"/>
<line x1="7.5" y1="10.5" x2="11.5" y2="10.5" stroke="#666666" stroke-linecap="round"/>
<line x1="9.5" y1="12.5" x2="9.5" y2="8.5" stroke="#666666" stroke-linecap="round"/>
</svg>
