<svg width="22" height="22" viewBox="0 0 22 22" fill="none" xmlns="http://www.w3.org/2000/svg">
<g clip-path="url(#clip0_3869_6497)">
<path d="M3.06707 8.64295H16.8358V10.5287H18.8028V4.87153C18.8028 3.83438 17.9177 2.98581 16.8358 2.98581H15.8524V1.1001H13.8854V2.98581H6.01752V1.1001H4.05055V2.98581H3.06707C1.9754 2.98581 1.10993 3.83438 1.10993 4.87153L1.1001 18.0715C1.1001 19.1087 1.9754 19.9572 3.06707 19.9572H9.95146V18.0715H3.06707V8.64295ZM3.06707 4.87153H16.8358V6.75724H3.06707V4.87153ZM20.6124 14.5641L19.9142 15.2335L17.8292 13.2347L18.5274 12.5652C18.911 12.1975 19.5306 12.1975 19.9142 12.5652L20.6124 13.2347C20.996 13.6024 20.996 14.1964 20.6124 14.5641ZM17.1309 13.9041L19.2159 15.903L14.0034 20.9001H11.9184V18.9012L17.1309 13.9041Z" fill="black"/>
</g>
<defs>
<clipPath id="clip0_3869_6497">
<rect width="22" height="22" fill="white"/>
</clipPath>
</defs>
</svg>
