<svg width="24" height="19" viewBox="0 0 24 19" fill="none" xmlns="http://www.w3.org/2000/svg">
<path d="M17.0947 10.6505C18.5893 11.6654 19.6365 13.0403 19.6365 14.8736V18.1473H24.0002V14.8736C24.0002 12.4947 20.1056 11.087 17.0947 10.6505Z" fill="black"/>
<path d="M15.2727 9.41761C17.6836 9.41761 19.6363 7.4643 19.6363 5.05268C19.6363 2.64105 17.6836 0.687744 15.2727 0.687744C14.76 0.687744 14.28 0.796867 13.8218 0.94964C14.7272 2.07361 15.2727 3.50313 15.2727 5.05268C15.2727 6.60223 14.7272 8.03174 13.8218 9.15571C14.28 9.30849 14.76 9.41761 15.2727 9.41761Z" fill="black"/>
<path d="M8.72739 9.41761C11.1383 9.41761 13.091 7.4643 13.091 5.05268C13.091 2.64105 11.1383 0.687744 8.72739 0.687744C6.31649 0.687744 4.36377 2.64105 4.36377 5.05268C4.36377 7.4643 6.31649 9.41761 8.72739 9.41761ZM8.72739 2.87021C9.92739 2.87021 10.9092 3.85232 10.9092 5.05268C10.9092 6.25303 9.92739 7.23514 8.72739 7.23514C7.5274 7.23514 6.54558 6.25303 6.54558 5.05268C6.54558 3.85232 7.5274 2.87021 8.72739 2.87021Z" fill="black"/>
<path d="M8.72724 10.5088C5.81453 10.5088 0 11.971 0 14.8737V18.1474H17.4545V14.8737C17.4545 11.971 11.64 10.5088 8.72724 10.5088ZM15.2727 15.965H2.18181V14.8846C2.39999 14.0989 5.7818 12.6913 8.72724 12.6913C11.6727 12.6913 15.0545 14.0989 15.2727 14.8737V15.965Z" fill="black"/>
</svg>
